<svg xmlns="http://www.w3.org/2000/svg" viewBox="0 0 30.08 29.422"><rect width="100%" height="100%" fill="#e43d6c"/><path d="M9.63 21.979c-3.061-1.527-4.714-2.535-4.921-3.002-.225-.509-.123-1.486.37-3.52.48-1.98.682-3.84.681-6.257 0-3.358.017-3.44.72-3.427.43.008 1.625.847 2.96 2.079 2.24 2.066 2.24 2.066 5.533 2.067 3.292.001 3.292.001 5.507-2.079 1.218-1.144 2.5-2.08 2.848-2.08.587 0 .641.262.74 3.6.06 1.993.387 4.853.733 6.407.448 2.007.533 2.966.3 3.36-.18.304-2.383 1.597-4.897 2.873s-4.885 2.31-5.268 2.299-2.77-1.056-5.306-2.32m3.17-3.727c0-.345-.318-.923-.706-1.285-.389-.362-1.268-.81-1.954-.994-.686-.185-1.448-.259-1.694-.164-.245.094-.446.31-.446.478 0 .17.485.822 1.078 1.45.898.952 1.298 1.143 2.4 1.143 1.1 0 1.322-.105 1.322-.628m7.141.27c.384-.196.948-.664 1.252-1.04.304-.375.556-.934.56-1.242q.006-.56-.713-.553c-.396.004-1.296.27-2 .59s-1.476.819-1.716 1.108-.352.745-.25 1.01c.11.289.588.485 1.177.485.545 0 1.306-.16 1.69-.357" style="fill:#190a18" transform="translate(0 -.018)"/></svg>